<?xml version="1.0" encoding="UTF-8" standalone="no"?>
<svg
   xmlns:dc="http://purl.org/dc/elements/1.1/"
   xmlns:cc="http://creativecommons.org/ns#"
   xmlns:rdf="http://www.w3.org/1999/02/22-rdf-syntax-ns#"
   xmlns:svg="http://www.w3.org/2000/svg"
   xmlns="http://www.w3.org/2000/svg"
   xmlns:sodipodi="http://sodipodi.sourceforge.net/DTD/sodipodi-0.dtd"
   xmlns:inkscape="http://www.inkscape.org/namespaces/inkscape"
   width="24"
   height="24"
   viewBox="0 0 24 24"
   version="1.1"
   id="svg14"
   sodipodi:docname="icon-people.svg"
   inkscape:version="0.92.2 5c3e80d, 2017-08-06">
  <metadata
     id="metadata20">
    <rdf:RDF>
      <cc:Work
         rdf:about="">
        <dc:format>image/svg+xml</dc:format>
        <dc:type
           rdf:resource="http://purl.org/dc/dcmitype/StillImage" />
      </cc:Work>
    </rdf:RDF>
  </metadata>
  <defs
     id="defs18" />
  <sodipodi:namedview
     pagecolor="#ffffff"
     bordercolor="#666666"
     borderopacity="1"
     objecttolerance="10"
     gridtolerance="10"
     guidetolerance="10"
     inkscape:pageopacity="0"
     inkscape:pageshadow="2"
     inkscape:window-width="1342"
     inkscape:window-height="780"
     id="namedview16"
     showgrid="false"
     inkscape:zoom="9.8333333"
     inkscape:cx="12"
     inkscape:cy="12"
     inkscape:window-x="0"
     inkscape:window-y="0"
     inkscape:window-maximized="0"
     inkscape:current-layer="svg14" />
  <path
     d="m 17.747125,17.75 h -0.956417 c 0,-1.487333 0.0575,-1.701042 -0.843333,-1.909958 -1.378083,-0.318167 -2.680458,-0.618125 -3.155792,-1.656959 -0.1725,-0.3795 -0.288458,-1.004333 0.148542,-1.827541 0.978458,-1.848625 1.223792,-3.4337087 0.67275,-4.348917 -0.644,-1.0685417 -2.594208,-1.0733333 -3.243958,0.016292 -0.5520003,0.9276666 -0.302834,2.504125 0.683291,4.324 0.445625,0.820333 0.3335,1.447083 0.161,1.8285 -0.469583,1.043625 -1.7594997,1.341666 -3.126083,1.656 C 7.1460417,16.048958 7.2054583,16.248292 7.2054583,17.75 H 6.2519167 L 6.25,17.152958 C 6.25,15.946417 6.3458333,15.250667 7.7718333,14.921 9.38375,14.548208 10.9765,14.215667 10.210792,12.804042 7.943375,8.6209167 9.5629583,6.25 11.998083,6.25 c 2.388167,0 4.050875,2.2837083 1.789209,6.554042 -0.742709,1.403 0.789666,1.7365 2.438958,2.116958 1.427917,0.329667 1.522792,1.027333 1.522792,2.235792 z m 4.609583,-2.12175 c -1.235291,-0.285583 -2.385291,-0.535708 -1.8285,-1.587958 1.69625,-3.20275 0.450417,-4.915292 -1.341666,-4.915292 -1.212292,0 -2.154334,0.782958 -2.154334,2.228125 0,1.216125 0.550084,2.084375 0.866334,2.803125 h 1.004333 C 18.739958,13.4375 17.497958,11.701 18.168792,10.575917 c 0.394833,-0.663167 1.633,-0.664125 2.025916,-0.0115 0.364167,0.604708 0.173459,1.7365 -0.51175,3.029291 -0.371833,0.702459 -0.268333,1.246792 -0.115958,1.579334 0.292292,0.63825 0.936292,0.945875 1.664625,1.157666 1.444208,0.422625 1.311,0.04025 1.311,1.418334 h 0.955458 L 23.5,17.305333 C 23.5,16.399708 23.42908,15.8755 22.356708,15.62825 Z M 0.50191667,17.75 H 1.457375 c 0,-1.378083 -0.1332083,-0.995708 1.311,-1.418333 C 3.4976667,16.119875 4.1416667,15.81225 4.433,15.174 4.585375,14.8405 4.688875,14.297125 4.3170417,13.594667 3.6318333,12.301875 3.441125,11.170083 3.8052917,10.565375 4.1982083,9.911792 5.436375,9.91275 5.8312083,10.576875 6.5020417,11.702917 5.2600417,13.438458 5.097125,14.157208 h 1.0043333 c 0.31625,-0.71875 0.8663334,-1.587 0.8663334,-2.803125 C 6.96875,9.907958 6.0267083,9.125 4.8144167,9.125 3.0223333,9.125 1.7765,10.837542 3.47275,14.040292 4.0295417,15.0935 2.8795417,15.342667 1.64425,15.62825 0.57091667,15.8755 0.5,16.399708 0.5,17.306292 Z"
     id="path12"
     inkscape:connector-curvature="0"
     style="stroke-width:0.95833331" />
</svg>
