<?xml version="1.0" encoding="UTF-8" standalone="no"?>
<svg
   xmlns:dc="http://purl.org/dc/elements/1.1/"
   xmlns:cc="http://creativecommons.org/ns#"
   xmlns:rdf="http://www.w3.org/1999/02/22-rdf-syntax-ns#"
   xmlns:svg="http://www.w3.org/2000/svg"
   xmlns="http://www.w3.org/2000/svg"
   xmlns:sodipodi="http://sodipodi.sourceforge.net/DTD/sodipodi-0.dtd"
   xmlns:inkscape="http://www.inkscape.org/namespaces/inkscape"
   width="24"
   height="24"
   viewBox="0 0 24 24"
   version="1.1"
   id="svg34"
   sodipodi:docname="icon-time.svg"
   inkscape:version="0.92.2 5c3e80d, 2017-08-06">
  <metadata
     id="metadata40">
    <rdf:RDF>
      <cc:Work
         rdf:about="">
        <dc:format>image/svg+xml</dc:format>
        <dc:type
           rdf:resource="http://purl.org/dc/dcmitype/StillImage" />
      </cc:Work>
    </rdf:RDF>
  </metadata>
  <defs
     id="defs38" />
  <sodipodi:namedview
     pagecolor="#ffffff"
     bordercolor="#666666"
     borderopacity="1"
     objecttolerance="10"
     gridtolerance="10"
     guidetolerance="10"
     inkscape:pageopacity="0"
     inkscape:pageshadow="2"
     inkscape:window-width="1192"
     inkscape:window-height="796"
     id="namedview36"
     showgrid="false"
     inkscape:zoom="9.8333333"
     inkscape:cx="12"
     inkscape:cy="12"
     inkscape:window-x="0"
     inkscape:window-y="0"
     inkscape:window-maximized="0"
     inkscape:current-layer="svg34" />
  <path
     d="m 12,2.416667 c 5.28425,0 9.58333,4.299083 9.58333,9.583333 0,5.28425 -4.29908,9.58333 -9.58333,9.58333 C 6.71575,21.58333 2.416667,17.28425 2.416667,12 2.416667,6.71575 6.71575,2.416667 12,2.416667 Z M 12,0.5 C 5.649125,0.5 0.5,5.649125 0.5,12 0.5,18.350875 5.649125,23.5 12,23.5 18.350875,23.5 23.5,18.350875 23.5,12 23.5,5.649125 18.350875,0.5 12,0.5 Z m 5.60433,11.939875 c 0.19359,0.0364 0.19359,0.319125 9.6e-4,0.3565 -1.82754,0.345955 -5.79312,1.064705 -6.27421,1.064705 -0.68904,0 -1.246788,-0.55775 -1.246788,-1.24679 0,-0.490665 0.737918,-5.22004 1.078128,-7.13479 0.0326,-0.184 0.299,-0.173458 0.328705,0.01342 L 12.43508,11.471 Z"
     id="path32"
     inkscape:connector-curvature="0"
     style="stroke-width:0.95833337" />
</svg>
