<svg xmlns="http://www.w3.org/2000/svg" width="24" height="24" viewBox="0 0 24 24" fill-rule="evenodd" clip-rule="evenodd"><path d="M3 18H1a1 1 0 0 1-1-1V4a1 1 0 0 1 1-1h13a1 1 0 0 1 1 1v2h4.667c1.117 0 1.6.576 1.936 1.107.594.94 1.536 2.432 2.109 3.378.188.312.288.67.288 1.035V16c0 1.089-.743 2-2 2h-1a3.001 3.001 0 0 1-6 0H9a3.001 3.001 0 0 1-6 0zm3-1.2a1.201 1.201 0 0 1 0 2.4 1.201 1.201 0 0 1 0-2.4zm12 0a1.201 1.201 0 0 1 0 2.4 1.201 1.201 0 0 1 0-2.4zM15 14H2v2h1.765A2.99 2.99 0 0 1 6 15a2.99 2.99 0 0 1 2.235 1h7.53A2.99 2.99 0 0 1 18 15a2.99 2.99 0 0 1 2.235 1H22v-4.575l-1.711-2.929A1 1 0 0 0 19.426 8H15v6zm-2-9H2v7h11V5zm3 4v3h5l-1.427-2.496A.999.999 0 0 0 18.705 9H16z"/></svg>