<?xml version="1.0" encoding="UTF-8"?><!DOCTYPE svg PUBLIC "-//W3C//DTD SVG 1.1//EN" "http://www.w3.org/Graphics/SVG/1.1/DTD/svg11.dtd"><svg xmlns="http://www.w3.org/2000/svg" xmlns:xlink="http://www.w3.org/1999/xlink"><defs/><symbol id="icon-people" viewBox="0 0 24 24"><path d="M17.997 18h-.998c0-1.552.06-1.775-.88-1.993-1.438-.332-2.797-.645-3.293-1.729-.18-.396-.301-1.048.155-1.907 1.021-1.929 1.277-3.583.702-4.538-.672-1.115-2.707-1.12-3.385.017-.576.968-.316 2.613.713 4.512.465.856.348 1.51.168 1.908-.49 1.089-1.836 1.4-3.262 1.728-.982.227-.92.435-.92 2.002h-.995L6 17.377c0-1.259.1-1.985 1.588-2.329 1.682-.389 3.344-.736 2.545-2.209C7.767 8.474 9.457 6 11.998 6c2.492 0 4.227 2.383 1.867 6.839-.775 1.464.824 1.812 2.545 2.209 1.49.344 1.589 1.072 1.589 2.333l-.002.619zm4.81-2.214c-1.289-.298-2.489-.559-1.908-1.657 1.77-3.342.47-5.129-1.4-5.129-1.265 0-2.248.817-2.248 2.325 0 1.269.574 2.175.904 2.925h1.048c-.17-.75-1.466-2.562-.766-3.736.412-.692 1.704-.693 2.114-.012.38.631.181 1.812-.534 3.161-.388.733-.28 1.301-.121 1.648.305.666.977.987 1.737 1.208 1.507.441 1.368.042 1.368 1.48h.997l.002-.463c0-.945-.074-1.492-1.193-1.75zM.002 18h.997c0-1.438-.139-1.039 1.368-1.48.761-.221 1.433-.542 1.737-1.208.159-.348.267-.915-.121-1.648-.715-1.349-.914-2.53-.534-3.161.41-.682 1.702-.681 2.114.012.7 1.175-.596 2.986-.766 3.736h1.048c.33-.75.904-1.656.904-2.925C6.75 9.817 5.767 9 4.502 9c-1.87 0-3.17 1.787-1.4 5.129.581 1.099-.619 1.359-1.908 1.657C.074 16.044 0 16.591 0 17.537L.002 18z"/></symbol><symbol id="icon-truck" viewBox="0 0 24 24"><path d="M3 18H1a1 1 0 0 1-1-1V4a1 1 0 0 1 1-1h13a1 1 0 0 1 1 1v2h4.667c1.117 0 1.6.576 1.936 1.107.594.94 1.536 2.432 2.109 3.378.188.312.288.67.288 1.035V16c0 1.089-.743 2-2 2h-1a3.001 3.001 0 0 1-6 0H9a3.001 3.001 0 0 1-6 0zm3-1.2a1.201 1.201 0 0 1 0 2.4 1.201 1.201 0 0 1 0-2.4zm12 0a1.201 1.201 0 0 1 0 2.4 1.201 1.201 0 0 1 0-2.4zM15 14H2v2h1.765A2.99 2.99 0 0 1 6 15a2.99 2.99 0 0 1 2.235 1h7.53A2.99 2.99 0 0 1 18 15a2.99 2.99 0 0 1 2.235 1H22v-4.575l-1.711-2.929A1 1 0 0 0 19.426 8H15v6zm-2-9H2v7h11V5zm3 4v3h5l-1.427-2.496A.999.999 0 0 0 18.705 9H16z"/></symbol></svg>