<svg xmlns="http://www.w3.org/2000/svg" width="24" height="24" viewBox="0 0 24 24" fill-rule="evenodd" clip-rule="evenodd"><path d="M3.375 17.75H1.458a.959.959 0 0 1-.958-.958V4.333c0-.529.43-.958.958-.958h12.459c.529 0 .958.43.958.958V6.25h4.473c1.07 0 1.533.552 1.855 1.06.57.902 1.472 2.332 2.021 3.238.18.3.276.642.276.992v4.293c0 1.044-.712 1.917-1.917 1.917h-.958a2.876 2.876 0 0 1-5.75 0h-5.75a2.876 2.876 0 0 1-5.75 0zM6.25 16.6a1.15 1.15 0 0 1 0 2.3 1.15 1.15 0 0 1 0-2.3zm11.5 0a1.15 1.15 0 0 1 0 2.3 1.15 1.15 0 0 1 0-2.3zm-2.875-2.683H2.417v1.916h1.691a2.865 2.865 0 0 1 2.142-.958c.851 0 1.616.37 2.142.958h7.216a2.865 2.865 0 0 1 2.142-.958c.851 0 1.616.37 2.142.958h1.691V11.45l-1.64-2.807a.958.958 0 0 0-.826-.475h-4.242zm-1.917-8.625H2.417V12h10.541zm2.875 3.833V12h4.792l-1.368-2.392a.957.957 0 0 0-.831-.483z"/></svg>