<?xml version="1.0" encoding="UTF-8"?><!DOCTYPE svg PUBLIC "-//W3C//DTD SVG 1.1//EN" "http://www.w3.org/Graphics/SVG/1.1/DTD/svg11.dtd"><svg xmlns="http://www.w3.org/2000/svg" xmlns:xlink="http://www.w3.org/1999/xlink"><defs/><symbol id="icon-email" viewBox="0 0 24 24"><path d="M.5 3.375v17.25h23V3.375zm6.347 7.599l-4.43 5.474V7.384zM2.879 5.292H21.12L12 12.683zm5.456 6.888L12 15.15l3.67-2.975 5.379 6.533H3.052zm8.825-1.211l4.423-3.585v8.958z"/></symbol><symbol id="icon-facebook" viewBox="0 0 24 24"><path d="M12 2.417c5.284 0 9.583 4.299 9.583 9.583S17.284 21.583 12 21.583 2.417 17.284 2.417 12 6.716 2.417 12 2.417zM12 .5C5.65.5.5 5.65.5 12S5.65 23.5 12 23.5 23.5 18.35 23.5 12 18.35.5 12 .5zm-1.917 9.583H8.167V12h1.916v5.75h2.875V12h1.745l.172-1.917h-1.917v-.798c0-.458.092-.64.535-.64h1.382V6.25h-2.304c-1.723 0-2.488.759-2.488 2.212z"/></symbol><symbol id="icon-location" viewBox="0 0 24 24"><path d="M12 .5C7.977.5 4.333 3.761 4.333 7.785c0 4.023 3.324 8.826 7.667 15.715 4.342-6.889 7.666-11.692 7.666-15.715C19.666 3.761 16.024.5 12 .5zm0 10.542a2.875 2.875 0 1 1 0-5.75 2.875 2.875 0 0 1 0 5.75z"/></symbol><symbol id="icon-people" viewBox="0 0 24 24"><path d="M17.747 17.75h-.956c0-1.487.057-1.701-.844-1.91-1.378-.318-2.68-.618-3.155-1.657-.173-.38-.289-1.004.148-1.827.979-1.85 1.224-3.434.673-4.35-.644-1.068-2.594-1.073-3.244.017-.552.928-.303 2.504.683 4.324.446.82.334 1.447.161 1.828-.47 1.044-1.76 1.342-3.126 1.656-.941.218-.882.417-.882 1.919h-.953l-.002-.597c0-1.207.096-1.902 1.522-2.232 1.612-.373 3.204-.705 2.439-2.117-2.268-4.183-.648-6.554 1.787-6.554 2.388 0 4.051 2.284 1.79 6.554-.743 1.403.789 1.737 2.438 2.117 1.428.33 1.523 1.027 1.523 2.236zm4.61-2.122c-1.236-.285-2.386-.535-1.829-1.588 1.696-3.202.45-4.915-1.341-4.915-1.213 0-2.155.783-2.155 2.228 0 1.216.55 2.085.867 2.803h1.004c-.163-.719-1.405-2.455-.734-3.58.395-.663 1.633-.664 2.026-.012.364.605.173 1.737-.512 3.03-.372.702-.268 1.247-.116 1.579.292.638.936.946 1.665 1.158 1.444.422 1.31.04 1.31 1.418h.956l.002-.444c0-.905-.07-1.43-1.143-1.677zM.502 17.75h.955c0-1.378-.133-.996 1.311-1.418.73-.212 1.374-.52 1.665-1.158.152-.333.256-.877-.116-1.58-.685-1.292-.876-2.424-.512-3.029.393-.653 1.631-.652 2.026.012.671 1.126-.571 2.861-.734 3.58h1.004c.317-.719.867-1.587.867-2.803 0-1.446-.941-2.229-2.154-2.229-1.792 0-3.038 1.713-1.341 4.915.557 1.054-.593 1.303-1.829 1.588C.571 15.876.5 16.4.5 17.306z"/></symbol><symbol id="icon-phone" viewBox="0 0 24 24"><path d="M19.666 22.179l-3.374-6.512c-.008.004-1.892.93-1.978.968-2.147 1.041-6.516-7.494-4.417-8.619l1.996-.983L8.545.5l-2.018.996c-6.902 3.598 4.057 24.9 11.117 21.672.116-.052 2.014-.986 2.022-.99z"/></symbol><symbol id="icon-time" viewBox="0 0 24 24"><path d="M12 2.417c5.284 0 9.583 4.299 9.583 9.583S17.284 21.583 12 21.583 2.417 17.284 2.417 12 6.716 2.417 12 2.417zM12 .5C5.65.5.5 5.65.5 12S5.65 23.5 12 23.5 23.5 18.35 23.5 12 18.35.5 12 .5zm5.604 11.94c.194.036.194.319.001.356-1.827.346-5.793 1.065-6.274 1.065a1.246 1.246 0 0 1-1.247-1.247c0-.49.738-5.22 1.078-7.135.033-.183.3-.173.33.014l.943 5.978z"/></symbol><symbol id="icon-truck" viewBox="0 0 24 24"><path d="M3.375 17.75H1.458a.959.959 0 0 1-.958-.958V4.333c0-.529.43-.958.958-.958h12.459c.529 0 .958.43.958.958V6.25h4.473c1.07 0 1.533.552 1.855 1.06.57.902 1.472 2.332 2.021 3.238.18.3.276.642.276.992v4.293c0 1.044-.712 1.917-1.917 1.917h-.958a2.876 2.876 0 0 1-5.75 0h-5.75a2.876 2.876 0 0 1-5.75 0zM6.25 16.6a1.15 1.15 0 0 1 0 2.3 1.15 1.15 0 0 1 0-2.3zm11.5 0a1.15 1.15 0 0 1 0 2.3 1.15 1.15 0 0 1 0-2.3zm-2.875-2.683H2.417v1.916h1.691a2.865 2.865 0 0 1 2.142-.958c.851 0 1.616.37 2.142.958h7.216a2.865 2.865 0 0 1 2.142-.958c.851 0 1.616.37 2.142.958h1.691V11.45l-1.64-2.807a.958.958 0 0 0-.826-.475h-4.242zm-1.917-8.625H2.417V12h10.541zm2.875 3.833V12h4.792l-1.368-2.392a.957.957 0 0 0-.831-.483z"/></symbol></svg>