<svg xmlns="http://www.w3.org/2000/svg" width="24" height="24" viewBox="0 0 24 24"><path d="M17.747 17.75h-.956c0-1.487.057-1.701-.844-1.91-1.378-.318-2.68-.618-3.155-1.657-.173-.38-.289-1.004.148-1.827.979-1.85 1.224-3.434.673-4.35-.644-1.068-2.594-1.073-3.244.017-.552.928-.303 2.504.683 4.324.446.82.334 1.447.161 1.828-.47 1.044-1.76 1.342-3.126 1.656-.941.218-.882.417-.882 1.919h-.953l-.002-.597c0-1.207.096-1.902 1.522-2.232 1.612-.373 3.204-.705 2.439-2.117-2.268-4.183-.648-6.554 1.787-6.554 2.388 0 4.051 2.284 1.79 6.554-.743 1.403.789 1.737 2.438 2.117 1.428.33 1.523 1.027 1.523 2.236zm4.61-2.122c-1.236-.285-2.386-.535-1.829-1.588 1.696-3.202.45-4.915-1.341-4.915-1.213 0-2.155.783-2.155 2.228 0 1.216.55 2.085.867 2.803h1.004c-.163-.719-1.405-2.455-.734-3.58.395-.663 1.633-.664 2.026-.012.364.605.173 1.737-.512 3.03-.372.702-.268 1.247-.116 1.579.292.638.936.946 1.665 1.158 1.444.422 1.31.04 1.31 1.418h.956l.002-.444c0-.905-.07-1.43-1.143-1.677zM.502 17.75h.955c0-1.378-.133-.996 1.311-1.418.73-.212 1.374-.52 1.665-1.158.152-.333.256-.877-.116-1.58-.685-1.292-.876-2.424-.512-3.029.393-.653 1.631-.652 2.026.012.671 1.126-.571 2.861-.734 3.58h1.004c.317-.719.867-1.587.867-2.803 0-1.446-.941-2.229-2.154-2.229-1.792 0-3.038 1.713-1.341 4.915.557 1.054-.593 1.303-1.829 1.588C.571 15.876.5 16.4.5 17.306z"/></svg>